<?xml version="1.0" encoding="UTF-8"?>
<svg xmlns="http://www.w3.org/2000/svg" version="1.1" viewBox="0 0 15.9 17.8">
  <defs>
    <style>
      .cls-1 {
        fill: #fff;
        fill-rule: evenodd;
      }
    </style>
  </defs>
  <!-- Generator: Adobe Illustrator 28.6.0, SVG Export Plug-In . SVG Version: 1.2.0 Build 709)  -->
  <g>
    <g id="_レイヤー_1" data-name="レイヤー_1">
      <path class="cls-1" d="M9.3,13c0,1.4-1.2,2.5-2.6,2.5s-.6,0-.9-.2c.3.1.6.2.9.2,1.4,0,2.6-1.1,2.6-2.5V.8h2.3c.2,1.2.9,2.2,1.9,2.8,0,0,0,0,0,0,.7.4,1.5.7,2.4.7v.7h0v2.4c-1.6,0-3.1-.5-4.4-1.4v6.2c0,3.1-2.6,5.6-5.8,5.6s-2.4-.4-3.3-1c0,0,0,0,0,0-1.5-1-2.5-2.7-2.5-4.6,0-3.1,2.6-5.6,5.8-5.6s.5,0,.8,0v.7c-2.9,0-5.3,2.2-5.6,5,.3-2.8,2.7-4.9,5.6-5v2.4c-.2,0-.5-.1-.8-.1-1.4,0-2.6,1.2-2.6,2.6s.6,1.8,1.4,2.3h0c.4.2.8.3,1.2.3,1.4,0,2.6-1.1,2.6-2.5V0h3.1c0,.3,0,.5,0,.8h-2.3v12.3Z"/>
    </g>
  </g>
</svg>