<?xml version="1.0" encoding="UTF-8"?>
<svg xmlns="http://www.w3.org/2000/svg" version="1.1" viewBox="0 0 562.3 123">
  <defs>
    <style>
      .cls-1 {
        fill: #005864;
      }
    </style>
  </defs>
  <!-- Generator: Adobe Illustrator 28.6.0, SVG Export Plug-In . SVG Version: 1.2.0 Build 709)  -->
  <g>
    <g id="_レイヤー_1" data-name="レイヤー_1">
      <g id="Logos">
        <path class="cls-1" d="M27.7,8.2l24.7,54.8c.7,1.7,2.7,2.4,4.3,1.7.7-.3,1.3-.9,1.7-1.7l24.6-54.8c1.1-2.5,3.6-4.1,6.4-4.1h14.3c3.9,0,7,3.1,7,7,0,1.1-.2,2.1-.7,3l-48.4,100.1c-1.7,3.5-5.9,4.9-9.4,3.2-1.4-.7-2.6-1.8-3.2-3.2L.7,14.1c-1.7-3.5-.2-7.7,3.3-9.4,1-.5,2-.7,3-.7h14.4c2.8,0,5.3,1.6,6.4,4.1Z"/>
        <path class="cls-1" d="M356.2,30.9c-2.8,1.8-6.5,1.4-8.9-1-3.4-3.4-8-5.3-12.8-5.3-3-.1-6,.9-8.2,3-1.6,1.6-2.4,3.8-2.5,6,0,3,1.4,4.9,3.8,6.5,1.6,1.1,3.3,1.6,9,4.6l13.7,6.8c6,3,11.8,6,16.1,10.6,6.3,6.3,8.5,13.4,8.5,21.3,0,9.7-3.5,19.1-10.1,26.2-9,9.8-20.2,12.8-32.2,12.8s-16.7-1.1-24.8-7.4c-4.9-3.9-9-8.7-11.9-14.3-1.8-3.4-.5-7.7,2.9-9.5,0,0,.2,0,.3-.1l9.4-4.4c3.4-1.6,7.4-.3,9.2,3,.9,1.8,2.1,3.4,3.5,4.8,1.6,1.6,5.5,4.4,11.7,4.4s8.5-1.4,10.9-3.8c2.3-2.4,3.7-5.6,3.8-9,0-3.1-1.2-6.2-3.3-8.5-.2-.2-.3-.4-.5-.5-3.2-3.1-7-5-11.2-6.9l-9.8-4.6c-5.2-2.5-11.5-5.5-15.8-9.8-6-5.7-8.2-12-8.2-19.4,0-9.1,3.4-17.9,9.5-24.6,5.2-5.5,13.9-10.9,28.1-10.9s14.8,1.6,21.3,6c3.3,2.1,6.2,4.7,8.7,7.7,2.5,3,2.1,7.4-.9,9.9-.2.2-.4.3-.7.5l-8.7,5.8Z"/>
        <path class="cls-1" d="M562.3,11.8v104.2c0,3.9-3.1,7-7,7h-12.5c-3.9,0-7-3.1-7-7V25.9c0-2.1,1-4.2,2.6-5.5l15.7-12.5c2.2-1.7,5.3-1.4,7,.8.7.9,1.1,2,1.1,3.1Z"/>
        <path class="cls-1" d="M473.2,29.9c-2.8,1.8-6.5,1.4-8.9-1-3.4-3.4-8-5.3-12.8-5.3-3-.1-6,.9-8.2,3-1.6,1.6-2.4,3.8-2.5,6,0,3,1.4,4.9,3.8,6.5,1.6,1.1,3.3,1.6,9,4.6l13.7,6.8c6,3,11.8,6,16.1,10.6,6.3,6.3,8.5,13.4,8.5,21.3,0,9.7-3.5,19.1-10.1,26.2-9,9.8-20.2,12.8-32.2,12.8s-16.7-1.1-24.8-7.4c-4.9-3.9-9-8.7-11.9-14.3-1.8-3.4-.5-7.7,2.9-9.5,0,0,.2,0,.3-.1l9.4-4.4c3.4-1.6,7.4-.3,9.2,3,.9,1.8,2.1,3.4,3.5,4.8,1.6,1.6,5.5,4.4,11.7,4.4s8.5-1.4,10.9-3.8c2.3-2.4,3.7-5.6,3.8-9,0-3.1-1.2-6.2-3.3-8.5-.2-.2-.3-.4-.5-.5-3.2-3.1-7-5-11.2-6.9l-9.8-4.6c-5.2-2.5-11.5-5.5-15.8-9.8-6-5.7-8.2-12-8.2-19.4,0-9.1,3.4-17.9,9.5-24.6,5.2-5.5,13.9-10.9,28.1-10.9s14.8,1.6,21.3,6c3.3,2.1,6.2,4.7,8.7,7.7,2.5,3,2.1,7.4-.9,9.9-.2.2-.4.3-.7.5l-8.7,5.8Z"/>
        <path class="cls-1" d="M249.5,91.1c1.6.9,2.2,3,1.3,4.6,0,0,0,.1,0,.2-4.5,7.2-10.5,13.3-17.6,18-9.3,6-21.6,8.7-33.9,8.7s-27.9-3.8-38.8-14.8-16.9-26.8-16.9-44,6.3-35,18.3-47.2c9.6-9.6,22.1-15.6,38.5-15.6s30,7.9,36.9,15c10.1,9.9,15.8,23.3,16,37.4h0s1,14-11,14l-67.6.5c-1.8,0-3.3,1.5-3.3,3.3,0,.2,0,.4,0,.5,1.2,7.1,4.5,14.5,9.4,19.4,6.3,6.3,13.9,7.4,20.5,7.4s12.8-1.6,18.3-5.7c3.6-2.8,6.6-6.1,9-9.9,1-1.5,2.9-1.9,4.5-1l16.4,9.3ZM221.7,46.1c1.9,0,3.4-1.5,3.4-3.4,0-.4,0-.7-.2-1.1-1.4-4.2-3.8-8-7-11.1-3.5-3.3-9.3-6.5-18-6.5s-15.3,3.8-18.8,7.4c-2.9,2.9-5.2,6.3-6.7,10.1-.7,1.7.2,3.7,1.9,4.4.4.2.8.2,1.3.2h44.2Z"/>
      </g>
    </g>
  </g>
</svg>