<?xml version="1.0" encoding="UTF-8"?>
<svg xmlns="http://www.w3.org/2000/svg" version="1.1" viewBox="0 0 121.5 85">
  <defs>
    <style>
      .cls-1, .cls-2 {
        fill: #fff;
      }

      .cls-1, .cls-3 {
        display: none;
      }

      .cls-4 {
        fill: #ed3024;
      }
    </style>
  </defs>
  <!-- Generator: Adobe Illustrator 28.6.0, SVG Export Plug-In . SVG Version: 1.2.0 Build 709)  -->
  <g>
    <g id="Layer_1">
      <g class="cls-3">
        <path class="cls-4" d="M118.9,13.3c-1.4-5.2-5.5-9.3-10.7-10.7C98.7,0,60.7,0,60.7,0,60.7,0,22.8,0,13.3,2.5,8.1,3.9,3.9,8.1,2.5,13.3,0,22.8,0,42.5,0,42.5,0,42.5,0,62.3,2.5,71.8c1.4,5.2,5.5,9.3,10.7,10.7,9.5,2.5,47.5,2.5,47.5,2.5,0,0,38,0,47.5-2.5,5.2-1.4,9.3-5.5,10.7-10.7,2.5-9.5,2.5-29.2,2.5-29.2,0,0,0-19.8-2.5-29.2Z"/>
        <polygon class="cls-2" points="48.6 60.7 80.2 42.5 48.6 24.3 48.6 60.7"/>
      </g>
      <path class="cls-1" d="M147.3,54.8l-14.1-48.7h12l5.4,24.8.9,4c.5,2.1,1,4.1,1.4,6.2h.4l2.3-10.3,5.8-24.7h11.8l-13.9,48.7v24.2h-12.1v-24.2Z"/>
      <path class="cls-1" d="M176.3,77.4c-2.4-1.6-4.1-4.1-5.1-7.6-1-3.4-1.5-8-1.5-13.6v-7.7c0-5.7.6-10.3,1.7-13.8,1.2-3.5,3-6,5.4-7.6,2.5-1.6,5.7-2.4,9.7-2.4s7.1.8,9.5,2.4c2.4,1.6,4.1,4.2,5.2,7.6,1.1,3.4,1.7,8,1.7,13.8v7.7c0,5.7-.5,10.2-1.6,13.7-1.1,3.4-2.8,6-5.2,7.6-2.4,1.6-5.7,2.4-9.8,2.4s-7.5-.8-9.9-2.4ZM189.8,69.1c.7-1.7,1-4.6,1-8.5v-16.6c0-3.8-.3-6.6-1-8.4-.7-1.8-1.8-2.6-3.5-2.6s-2.8.9-3.4,2.6c-.7,1.8-1,4.6-1,8.4v16.6c0,3.9.3,6.8,1,8.5.6,1.7,1.8,2.6,3.5,2.6s2.9-.9,3.5-2.6Z"/>
      <path class="cls-1" d="M241.4,25.8v53.3h-9.4l-1-6.5h-.3c-2.4,4.9-6.1,7.4-11.1,7.4s-6.2-1.1-7.9-3.4c-1.7-2.3-2.6-5.9-2.6-10.9V25.8h12v39.1c0,2.3.3,4,.8,5,.5,1,1.4,1.6,2.6,1.6s2-.3,2.9-1c.9-.7,1.6-1.5,2-2.6V25.8h12Z"/>
      <path class="cls-1" d="M274,15.9h-11.6v63.2h-12.2V15.9h-11.6V6.1h35.4v9.7Z"/>
      <path class="cls-1" d="M303.2,25.8v53.3h-9.4l-1-6.5h-.3c-2.4,4.9-6.1,7.4-11.1,7.4s-6.2-1.1-7.9-3.4c-1.7-2.3-2.6-5.9-2.6-10.9V25.8h12v39.1c0,2.3.3,4,.8,5,.5,1,1.4,1.6,2.6,1.6s2-.3,2.9-1c.9-.7,1.6-1.5,2-2.6V25.8h12Z"/>
      <path class="cls-1" d="M360.7,56.4v2.7c0,3.4,0,6,.3,7.7.2,1.7.6,3,1.3,3.7.6.8,1.6,1.2,3,1.2s3-.7,3.7-2.1c.7-1.4,1-3.7,1.1-7l10.3.6c0,.5,0,1.1,0,1.9,0,4.9-1.3,8.6-4,11-2.7,2.4-6.5,3.6-11.4,3.6s-10-1.9-12.4-5.6c-2.4-3.7-3.6-9.4-3.6-17.2v-9.3c0-8,1.2-13.8,3.7-17.5,2.5-3.7,6.7-5.5,12.6-5.5s7.3.8,9.5,2.3c2.2,1.5,3.7,3.9,4.6,7,.9,3.2,1.3,7.6,1.3,13.2v9.1h-20.1ZM362.2,34c-.6.8-1,2-1.2,3.7-.2,1.7-.3,4.3-.3,7.8v3.8h8.8v-3.8c0-3.4-.1-6-.3-7.8-.2-1.8-.7-3-1.3-3.7-.6-.7-1.6-1.1-2.8-1.1s-2.2.4-2.8,1.1Z"/>
      <path class="cls-1" d="M342.9,34.3c-.7-3.4-1.9-5.8-3.5-7.3-1.6-1.5-3.9-2.3-6.7-2.3s-4.3.6-6.2,1.9c-1.9,1.2-3.4,2.9-4.4,4.9h0V3.4s-11.3,0-11.3,0v75.6h9.6l1.2-5h.3c.9,1.8,2.3,3.2,4.2,4.3,1.9,1,3.9,1.6,6.2,1.6,4.1,0,7-1.9,8.9-5.6,1.9-3.7,2.9-9.6,2.9-17.5v-8.4c0-6-.4-10.6-1.1-14ZM331.9,56c0,3.9-.2,6.9-.5,9.1-.3,2.2-.9,3.8-1.6,4.7-.8.9-1.8,1.4-3,1.4s-1.9-.2-2.7-.7c-.8-.5-1.5-1.2-2-2.1v-30.2c.4-1.4,1.1-2.6,2.1-3.6,1-.9,2.1-1.4,3.2-1.4s2.2.5,2.8,1.4c.7,1,1.1,2.6,1.4,4.8.3,2.3.4,5.5.4,9.6v6.9Z"/>
      <path class="cls-2" d="M118.9,13.3c-1.4-5.2-5.5-9.3-10.7-10.7C98.7,0,60.7,0,60.7,0c0,0-38,0-47.5,2.5C8.1,3.9,3.9,8.1,2.5,13.3,0,22.8,0,42.5,0,42.5c0,0,0,19.8,2.5,29.2,1.4,5.2,5.5,9.3,10.7,10.7,9.5,2.5,47.5,2.5,47.5,2.5,0,0,38,0,47.5-2.5,5.2-1.4,9.3-5.5,10.7-10.7,2.5-9.5,2.5-29.2,2.5-29.2,0,0,0-19.8-2.5-29.2ZM48.6,60.7V24.3l31.6,18.2-31.6,18.2Z"/>
    </g>
  </g>
</svg>